<?xml version="1.0" standalone="no"?>
<!DOCTYPE svg PUBLIC "-//W3C//DTD SVG 20010904//EN"
 "http://www.w3.org/TR/2001/REC-SVG-20010904/DTD/svg10.dtd">
<svg version="1.0" xmlns="http://www.w3.org/2000/svg"
 width="500.000000pt" height="500.000000pt" viewBox="0 0 500.000000 500.000000"
 preserveAspectRatio="xMidYMid meet">

<g transform="translate(0.000000,500.000000) scale(0.100000,-0.100000)"
fill="#f0ff" stroke="none">
<path d="M1406 4353 c-7 -23 -42 -209 -55 -298 -20 -129 -40 -328 -55 -541
l-15 -211 -51 -84 c-151 -248 -246 -534 -307 -929 -13 -84 -18 -174 -18 -335
0 -269 14 -339 105 -522 151 -304 443 -542 883 -719 122 -49 147 -53 147 -25
0 10 -18 73 -40 140 -47 138 -81 284 -71 300 5 8 50 6 162 -6 207 -22 631 -21
829 1 80 9 148 16 153 16 24 0 -15 -171 -82 -362 -17 -47 -31 -91 -31 -97 0
-21 43 -11 159 35 262 104 474 233 634 384 115 109 181 194 241 310 84 164
116 307 116 528 0 459 -125 934 -339 1286 -49 80 -50 82 -56 186 -20 339 -84
853 -116 936 -15 40 -56 30 -214 -50 -162 -83 -357 -208 -484 -310 l-83 -67
-168 12 c-129 9 -200 9 -313 1 l-146 -12 -125 94 c-158 119 -272 190 -454 283
-146 74 -196 88 -206 56z m188 -243 c99 -128 216 -300 216 -316 0 -7 -31 -29
-69 -49 -38 -20 -108 -68 -156 -106 -48 -39 -89 -68 -91 -66 -7 7 -33 264 -40
398 -4 75 -3 171 1 214 l7 77 30 -29 c16 -15 62 -71 102 -123z m1947 -190
c-11 -206 -25 -337 -37 -349 -2 -3 -19 9 -37 26 -42 40 -159 123 -224 159 -29
16 -53 32 -53 35 0 17 169 259 251 359 l94 115 9 -60 c6 -39 5 -139 -3 -285z
m-1601 -1137 c44 -54 107 -190 188 -404 39 -102 84 -214 102 -249 43 -85 109
-154 186 -191 70 -35 76 -47 48 -105 -22 -47 -63 -74 -112 -74 -32 0 -44 5
-61 28 -17 22 -22 24 -30 13 -12 -18 11 -66 34 -75 29 -11 95 -6 124 9 16 8
40 28 55 45 l26 32 26 -32 c34 -40 74 -60 121 -60 47 0 103 32 103 59 0 32
-18 34 -44 5 -57 -67 -169 -10 -183 93 l-5 38 53 19 c66 23 152 106 196 191
17 33 61 141 98 240 83 223 156 380 197 423 45 46 86 44 128 -5 67 -81 155
-308 201 -523 18 -83 23 -137 24 -260 l0 -155 -32 -61 c-80 -154 -259 -254
-543 -306 -166 -30 -494 -30 -665 1 -292 52 -477 155 -552 308 -25 52 -28 70
-32 181 -1 68 2 160 9 205 34 243 133 535 209 616 43 46 89 43 131 -6z"/>
</g>
</svg>
